<?xml version="1.0" encoding="utf-8"?>
<!-- Generator: Adobe Illustrator 16.0.4, SVG Export Plug-In . SVG Version: 6.00 Build 0)  -->
<!DOCTYPE svg PUBLIC "-//W3C//DTD SVG 1.1//EN" "http://www.w3.org/Graphics/SVG/1.1/DTD/svg11.dtd">
<svg version="1.1" id="Warstwa_1" xmlns="http://www.w3.org/2000/svg" xmlns:xlink="http://www.w3.org/1999/xlink" x="0px" y="0px"
	 width="20px" height="20px" viewBox="0 0 20 20" enable-background="new 0 0 20 20" xml:space="preserve">
<g>
	<g>
		<path fill="#C8C8C8" d="M10,19.009c4.976,0,9.009-4.032,9.009-9.009c0-4.976-4.033-9.009-9.009-9.009
			c-4.977,0-9.009,4.033-9.009,9.009C0.991,14.977,5.023,19.009,10,19.009"/>
		<path fill="#FFFFFF" d="M10,20C4.486,20,0,15.515,0,10S4.486,0,10,0c5.514,0,10,4.485,10,10S15.514,20,10,20z M10,1.982
			c-4.421,0-8.018,3.597-8.018,8.018S5.578,18.018,10,18.018s8.018-3.597,8.018-8.018S14.421,1.982,10,1.982z"/>
	</g>
	<g>
		<polygon fill="#FFFFFF" points="6.903,10.914 15.068,2.748 16.877,4.794 8.831,12.843 5.088,14.67 		"/>
		<polygon fill="#FFFFFF" points="6.362,13.609 5.088,14.67 17.298,14.67 17.98,13.609 		"/>
	</g>
</g>
</svg>
