<?xml version="1.0" encoding="utf-8"?>
<!-- Generator: Adobe Illustrator 16.0.4, SVG Export Plug-In . SVG Version: 6.00 Build 0)  -->
<!DOCTYPE svg PUBLIC "-//W3C//DTD SVG 1.1//EN" "http://www.w3.org/Graphics/SVG/1.1/DTD/svg11.dtd">
<svg version="1.1" id="Warstwa_1" xmlns="http://www.w3.org/2000/svg" xmlns:xlink="http://www.w3.org/1999/xlink" x="0px" y="0px"
	 width="20px" height="20px" viewBox="0 0 20 20" enable-background="new 0 0 20 20" xml:space="preserve">
<g>
	<circle fill="#E6E6E6" cx="10" cy="10" r="9.523"/>
	<g>
		<polygon fill="#FFFFFF" points="14.589,18.466 9.971,19.597 5.411,18.466 5.411,13.771 14.589,13.771 		"/>
		<g>
			<path fill="#FFFFFF" d="M5.411,14.16c0-1.893,2.055-3.427,4.589-3.427s4.589,1.534,4.589,3.427 M14.589,18.323V14.16
				 M5.411,14.16v4.163"/>
			<path fill="#C8C8C8" d="M15.064,18.323h-0.952V14.16c0-1.627-1.845-2.95-4.112-2.95s-4.112,1.323-4.112,2.95v4.163H4.935V14.16
				c0-2.152,2.272-3.903,5.065-3.903s5.064,1.751,5.064,3.903V18.323z"/>
		</g>
		<g>
			<path fill="#FFFFFF" d="M12.176,8.506c-0.634,1.407-0.75,2.787-2.176,2.787c-1.427,0-1.654-1.26-2.246-2.787
				C7.238,7.176,7.641,5.02,10,5.02C12.147,5.02,12.762,7.205,12.176,8.506z"/>
			<path fill="#C8C8C8" d="M10,11.77c-1.562,0-2-1.206-2.464-2.483C7.465,9.09,7.392,8.887,7.311,8.678
				c-0.391-1.006-0.284-2.18,0.271-2.99C7.938,5.166,8.648,4.543,10,4.543c1.019,0,1.862,0.438,2.375,1.229
				c0.547,0.848,0.642,2.024,0.234,2.929c-0.131,0.292-0.24,0.586-0.347,0.871C11.862,10.652,11.446,11.77,10,11.77z M10,5.496
				c-0.752,0-1.302,0.245-1.633,0.729C7.932,6.861,7.969,7.742,8.198,8.333c0.083,0.216,0.16,0.426,0.233,0.628
				c0.467,1.287,0.709,1.856,1.568,1.856c0.721,0,0.937-0.409,1.37-1.577c0.111-0.299,0.227-0.609,0.371-0.93
				c0.275-0.612,0.207-1.443-0.166-2.021C11.341,5.928,10.878,5.496,10,5.496z"/>
		</g>
	</g>
	<path fill="#FFFFFF" d="M10,20C4.486,20,0,15.514,0,10S4.486,0,10,0s10,4.486,10,10S15.514,20,10,20z M10,0.952
		c-4.989,0-9.048,4.059-9.048,9.048S5.011,19.048,10,19.048s9.048-4.059,9.048-9.048S14.989,0.952,10,0.952z"/>
</g>
</svg>
