<?xml version="1.0" encoding="utf-8"?>
<!-- Generator: Adobe Illustrator 16.0.0, SVG Export Plug-In . SVG Version: 6.00 Build 0)  -->
<!DOCTYPE svg PUBLIC "-//W3C//DTD SVG 1.0//EN" "http://www.w3.org/TR/2001/REC-SVG-20010904/DTD/svg10.dtd">
<svg version="1.0" id="Warstwa_1" xmlns="http://www.w3.org/2000/svg" xmlns:xlink="http://www.w3.org/1999/xlink" x="0px" y="0px"
	 width="20px" height="20px" viewBox="0 0 20 20" enable-background="new 0 0 20 20" xml:space="preserve">
<g display="none">
	<path display="inline" fill="#A6A8AB" d="M3.755,10.634l6.242-4.195l6.245,4.195v7.358H3.755V10.634z M1.687,9.58V20h16.624V9.58
		L9.998,3.997L1.687,9.58z"/>
	<polygon display="inline" fill="#A6A8AB" points="9.998,0 0,6.892 1.196,8.529 9.998,2.462 18.801,8.529 20,6.892 	"/>
	<rect x="7.647" y="12.577" display="inline" fill="#A6A8AB" width="4.703" height="6.419"/>
</g>
<g>
	<g>
		<defs>
			<rect id="SVGID_1_" width="20" height="20"/>
		</defs>
		<clipPath id="SVGID_2_">
			<use xlink:href="#SVGID_1_"  overflow="visible"/>
		</clipPath>
		<path clip-path="url(#SVGID_2_)" fill="#A6A8AB" d="M10,7.75c-1.24,0-2.249,1.01-2.249,2.25S8.76,12.249,10,12.249
			S12.25,11.24,12.25,10S11.24,7.75,10,7.75 M10,14.153c-2.291,0-4.153-1.862-4.153-4.153S7.709,5.846,10,5.846
			S14.154,7.709,14.154,10S12.291,14.153,10,14.153"/>
	</g>
	<path fill="#A6A8AB" d="M9.231,3.729l0.377-1.825h0.707l0.484,1.841l3.089,1.279l1.56-1.026l0.498,0.5l-0.957,1.639l1.275,3.135
		l1.832,0.378v0.707l-1.833,0.48l-1.321,3.073l1.028,1.566l-0.499,0.501l-1.639-0.958l-3.061,1.242l-0.379,1.833H9.685L9.2,16.255
		l-3.091-1.28l-1.557,1.026l-0.5-0.501l0.96-1.645L3.729,10.81l-1.824-0.375V9.727l1.848-0.485l1.238-3.108L3.969,4.582l0.499-0.501
		l1.648,0.962L9.231,3.729z M8.057,0L7.568,2.363L6.253,2.919L4.159,1.697L1.525,4.333l1.328,2.019L2.339,7.645L0,8.257v3.728
		l2.364,0.487l0.524,1.246L1.666,15.81l2.637,2.636l2.012-1.324l1.284,0.533L8.215,20h3.729l0.486-2.354l1.252-0.509l2.098,1.225
		l2.635-2.633l-1.318-2.007l0.551-1.277L20,11.826V8.098l-2.355-0.485l-0.537-1.324l1.225-2.098l-2.637-2.638l-2.013,1.324
		L12.4,2.347L11.785,0H8.057z"/>
</g>
</svg>
